<svg xmlns="http://www.w3.org/2000/svg" width="18.125" height="14.5" viewBox="0 0 18.125 14.5">
  <path id="Icon_awesome-robot" data-name="Icon awesome-robot" d="M0,7.25v3.625a.905.905,0,0,0,.906.906h.906V6.344H.906A.905.905,0,0,0,0,7.25ZM13.141,2.719H9.969V.906a.906.906,0,1,0-1.813,0V2.719H4.984A2.265,2.265,0,0,0,2.719,4.984v7.7A1.814,1.814,0,0,0,4.531,14.5h9.063a1.814,1.814,0,0,0,1.813-1.813v-7.7A2.265,2.265,0,0,0,13.141,2.719ZM7.25,11.781H5.438v-.906H7.25Zm-.906-3.4A1.133,1.133,0,1,1,7.477,7.25,1.133,1.133,0,0,1,6.344,8.383Zm3.625,3.4H8.156v-.906H9.969Zm2.719,0H10.875v-.906h1.813Zm-.906-3.4A1.133,1.133,0,1,1,12.914,7.25,1.133,1.133,0,0,1,11.781,8.383Zm5.438-2.039h-.906v5.438h.906a.905.905,0,0,0,.906-.906V7.25A.905.905,0,0,0,17.219,6.344Z" fill="#fff"/>
</svg>
