<svg id="Group_8520" data-name="Group 8520" xmlns="http://www.w3.org/2000/svg" width="25" height="25" viewBox="0 0 25 25">
  <g id="Rectangle_3466" data-name="Rectangle 3466" fill="#f7f9fc" stroke="#e9eff2" stroke-width="1">
    <rect width="25" height="25" rx="2" stroke="none"/>
    <rect x="0.5" y="0.5" width="24" height="24" rx="1.5" fill="none"/>
  </g>
  <g id="noun-like-1061106" transform="translate(6.5 6.985)">
    <path id="Path_5321" data-name="Path 5321" d="M159.542,80.1a3.166,3.166,0,0,0,.482-.949,12.872,12.872,0,0,0,.445-1.559l2.336-2.642h2A1.077,1.077,0,0,0,166,73.765v-4.26a1.11,1.11,0,0,0-1.221-1.157,15.16,15.16,0,0,1-4.28-.7,7.877,7.877,0,0,0-3.621-.354,2.341,2.341,0,0,0-1.291.718,1.863,1.863,0,0,0-.439,1.6,1.432,1.432,0,0,0-.359,1.715,1.184,1.184,0,0,0-.53.814,1.5,1.5,0,0,0,.188.916,1.945,1.945,0,0,0-.38,1.747,1.482,1.482,0,0,0,1.436,1.174h2.314a4.91,4.91,0,0,0-.7,2.979,1.459,1.459,0,0,0,.7.959,2.914,2.914,0,0,0,1.478.316.459.459,0,0,0,.257-.129Zm-.273-.214a2.6,2.6,0,0,1-1.291-.273,1.074,1.074,0,0,1-.536-.734,5.94,5.94,0,0,1,.916-3.248H155.5a1.107,1.107,0,0,1-1.1-.916,1.652,1.652,0,0,1,.466-1.618,1.429,1.429,0,0,1-.268-.911,1.014,1.014,0,0,1,.621-.734,1.266,1.266,0,0,1,.311-1.7,1.7,1.7,0,0,1,.321-1.517,2.472,2.472,0,0,1,1.061-.605,7.5,7.5,0,0,1,3.5.343,20.189,20.189,0,0,0,2.662.595v6.045h-.423c-.867.988-1.741,1.971-2.491,2.819a14.365,14.365,0,0,1-.455,1.613,2.63,2.63,0,0,1-.434.847Zm5.539-5.278h-1.393v-6c.472.035.956.077,1.382.08a.748.748,0,0,1,.857.814v4.26a.763.763,0,0,1-.846.847Zm-.021-4.63a.514.514,0,1,0-.514-.514A.514.514,0,0,0,164.786,69.982Z" transform="translate(-153.997 -67.204)"/>
  </g>
</svg>
