<svg xmlns="http://www.w3.org/2000/svg" width="10.5" height="12" viewBox="0 0 10.5 12">
  <path id="document_scanner_FILL0_wght400_GRAD0_opsz48" d="M201.125,266.875h8.25v-9.75h-8.25Zm0,1.125A1.154,1.154,0,0,1,200,266.875v-9.75A1.154,1.154,0,0,1,201.125,256h8.25a1.154,1.154,0,0,1,1.125,1.125v9.75A1.154,1.154,0,0,1,209.375,268Zm2.438-7.687h3.375a.543.543,0,0,0,.4-.163.549.549,0,0,0,.162-.4.538.538,0,0,0-.162-.4.549.549,0,0,0-.4-.159h-3.375a.543.543,0,0,0-.4.163.549.549,0,0,0-.162.4.538.538,0,0,0,.162.4A.549.549,0,0,0,203.562,260.313Zm0,2.25h3.375a.543.543,0,0,0,.4-.163.549.549,0,0,0,.162-.4.538.538,0,0,0-.162-.4.549.549,0,0,0-.4-.159h-3.375a.543.543,0,0,0-.4.163.549.549,0,0,0-.162.4.538.538,0,0,0,.162.4A.549.549,0,0,0,203.562,262.563Zm0,2.25h3.375a.543.543,0,0,0,.4-.163.549.549,0,0,0,.162-.4.538.538,0,0,0-.162-.4.549.549,0,0,0-.4-.159h-3.375a.543.543,0,0,0-.4.163.549.549,0,0,0-.162.4.538.538,0,0,0,.162.4A.549.549,0,0,0,203.562,264.812Zm-2.437,2.063v0Z" transform="translate(-200 -256)" fill="#18749c"/>
</svg>
