<svg xmlns="http://www.w3.org/2000/svg" width="25" height="25" viewBox="0 0 25 25">
  <g id="Group_8519" data-name="Group 8519" transform="translate(-4 -0.6)">
    <g id="Rectangle_3465" data-name="Rectangle 3465" transform="translate(4 0.6)" fill="#f7f9fc" stroke="#e9eff2" stroke-width="1">
      <rect width="25" height="25" rx="2" stroke="none"/>
      <rect x="0.5" y="0.5" width="24" height="24" rx="1.5" fill="none"/>
    </g>
    <path id="Subtraction_38" data-name="Subtraction 38" d="M8.093,13.026A9.531,9.531,0,0,1,5.5,12.582l-.145-.042H5.349l-.062-.017-.012,0A17.418,17.418,0,0,0,2.8,11.985V5.277h.393L5.529,2.635a13.389,13.389,0,0,1,.444-1.56A3.258,3.258,0,0,1,6.453.122.156.156,0,0,0,6.484.1l.007,0a.344.344,0,0,1,.22-.1A2.874,2.874,0,0,1,8.191.315a1.437,1.437,0,0,1,.7.96,4.815,4.815,0,0,1-.7,2.978H10.5a1.48,1.48,0,0,1,1.435,1.173,1.93,1.93,0,0,1-.38,1.743,1.535,1.535,0,0,1,.187.915,1.163,1.163,0,0,1-.53.817,1.427,1.427,0,0,1-.359,1.717,1.863,1.863,0,0,1-.438,1.6,2.332,2.332,0,0,1-1.291.715A5.721,5.721,0,0,1,8.093,13.026Zm-5.787-1.1h0c-.4-.033-.74-.048-1.083-.048H1.184a1.206,1.206,0,0,1-.859-.318A1.132,1.132,0,0,1,0,10.727V6.467a1.079,1.079,0,0,1,1.159-1.19H2.306V11.93ZM1.074,10.448a.494.494,0,1,0,.5.5A.495.495,0,0,0,1.074,10.448Z" transform="translate(10 6.6)" fill="#05c97f"/>
  </g>
</svg>
