<svg id="Group_8254" data-name="Group 8254" xmlns="http://www.w3.org/2000/svg" width="25" height="25" viewBox="0 0 25 25">
  <g id="Rectangle_3064" data-name="Rectangle 3064" fill="#f7f9fc" stroke="#e9eff2" stroke-width="1">
    <rect width="25" height="25" rx="2" stroke="none"/>
    <rect x="0.5" y="0.5" width="24" height="24" rx="1.5" fill="none"/>
  </g>
  <path id="Subtraction_18" data-name="Subtraction 18" d="M8.093,13.027A9.528,9.528,0,0,1,5.5,12.583l-.145-.041H5.349l-.063-.017-.012,0A17.425,17.425,0,0,0,2.8,11.986V5.278h.393L5.529,2.635a13.343,13.343,0,0,1,.444-1.56A3.23,3.23,0,0,1,6.454.122.129.129,0,0,0,6.485.1l.007,0a.349.349,0,0,1,.22-.1A2.873,2.873,0,0,1,8.191.315a1.434,1.434,0,0,1,.7.96,4.813,4.813,0,0,1-.7,2.978H10.5a1.481,1.481,0,0,1,1.435,1.173,1.933,1.933,0,0,1-.38,1.743,1.529,1.529,0,0,1,.187.916,1.163,1.163,0,0,1-.529.817,1.429,1.429,0,0,1-.36,1.717,1.862,1.862,0,0,1-.438,1.6,2.335,2.335,0,0,1-1.292.715A5.7,5.7,0,0,1,8.093,13.027Zm-5.786-1.1h0c-.4-.033-.741-.048-1.084-.048H1.184a1.2,1.2,0,0,1-.858-.318A1.129,1.129,0,0,1,0,10.728V6.467a1.079,1.079,0,0,1,1.16-1.19H2.306v6.653ZM1.075,10.449a.494.494,0,1,0,.5.5A.494.494,0,0,0,1.075,10.449Z" transform="translate(18.847 19.23) rotate(180)" fill="#f01f1f"/>
</svg>
